<svg width="246" height="80" viewBox="0 0 246 80" fill="none" xmlns="http://www.w3.org/2000/svg">
<path d="M87.914 64L79.004 51.13H78.476H69.17V64H58.478V17.8H78.476C82.568 17.8 86.11 18.482 89.102 19.846C92.138 21.21 94.47 23.146 96.098 25.654C97.726 28.162 98.54 31.132 98.54 34.564C98.54 37.996 97.704 40.966 96.032 43.474C94.404 45.938 92.072 47.83 89.036 49.15L99.398 64H87.914ZM87.716 34.564C87.716 31.968 86.88 29.988 85.208 28.624C83.536 27.216 81.094 26.512 77.882 26.512H69.17V42.616H77.882C81.094 42.616 83.536 41.912 85.208 40.504C86.88 39.096 87.716 37.116 87.716 34.564Z" fill="black"/>
<path d="M21.5 19L1 64.5H12L16 55H37L41 64.5H52.5L32 19H21.5Z" fill="#FE8D47" stroke="black"/>
<path d="M141.5 18H101V26.5H116V64L126.5 26.5L141.5 18Z" fill="#FE8D47" stroke="black"/>
<path d="M147.478 17.8H158.17V64H147.478V17.8ZM184.314 64.792C180.662 64.792 177.12 64.308 173.688 63.34C170.3 62.328 167.572 61.03 165.504 59.446L169.134 51.394C171.114 52.846 173.468 54.012 176.196 54.892C178.924 55.772 181.652 56.212 184.38 56.212C187.416 56.212 189.66 55.772 191.112 54.892C192.564 53.968 193.29 52.758 193.29 51.262C193.29 50.162 192.85 49.26 191.97 48.556C191.134 47.808 190.034 47.214 188.67 46.774C187.35 46.334 185.546 45.85 183.258 45.322C179.738 44.486 176.856 43.65 174.612 42.814C172.368 41.978 170.432 40.636 168.804 38.788C167.22 36.94 166.428 34.476 166.428 31.396C166.428 28.712 167.154 26.292 168.606 24.136C170.058 21.936 172.236 20.198 175.14 18.922C178.088 17.646 181.674 17.008 185.898 17.008C188.846 17.008 191.728 17.36 194.544 18.064C197.36 18.768 199.824 19.78 201.936 21.1L198.636 29.218C194.368 26.798 190.1 25.588 185.832 25.588C182.84 25.588 180.618 26.072 179.166 27.04C177.758 28.008 177.054 29.284 177.054 30.868C177.054 32.452 177.868 33.64 179.496 34.432C181.168 35.18 183.698 35.928 187.086 36.676C190.606 37.512 193.488 38.348 195.732 39.184C197.976 40.02 199.89 41.34 201.474 43.144C203.102 44.948 203.916 47.39 203.916 50.47C203.916 53.11 203.168 55.53 201.672 57.73C200.22 59.886 198.02 61.602 195.072 62.878C192.124 64.154 188.538 64.792 184.314 64.792ZM220.148 26.512H205.364V17.8H245.624V26.512H230.84V64H220.148V26.512Z" fill="black"/>
<path d="M19.5 46.5L27 30L34 46.5H19.5Z" fill="white" stroke="black"/>
</svg>
