<svg width="147" height="147" viewBox="0 0 147 147" fill="none" xmlns="http://www.w3.org/2000/svg">
<path d="M20.1611 54.9949L26.981 59.677L26.6918 60.7945L19.2473 55.5089L19.4337 54.7885L20.1611 54.9949ZM28.2816 54.6511L20.0451 55.443L19.309 55.2706L19.4954 54.5502L28.5722 53.528L28.2816 54.6511ZM25.1874 54.0017L26.0836 54.2337L24.8828 58.8738L23.9866 58.6418L25.1874 54.0017Z" fill="black"/>
<path d="M26.5155 42.8589L27.2549 43.2403L25.6836 46.2867L24.9442 45.9053L26.5155 42.8589ZM24.1064 44.1678L24.6033 43.2044L30.2118 46.0972C30.4027 46.1957 30.562 46.2405 30.6897 46.2316C30.8173 46.2227 30.9209 46.1795 31.0005 46.1019C31.0801 46.0243 31.1477 45.9316 31.2032 45.824C31.2444 45.7442 31.2804 45.6573 31.3113 45.5633C31.3405 45.4641 31.3615 45.3892 31.3744 45.3387L32.1634 45.7391C32.1483 45.828 32.1189 45.9403 32.0753 46.0761C32.0369 46.2101 31.973 46.3639 31.8834 46.5375C31.7617 46.7736 31.6029 46.9664 31.4071 47.1159C31.2113 47.2655 30.9736 47.3428 30.694 47.3481C30.4127 47.348 30.0846 47.2513 29.7097 47.0579L24.1064 44.1678Z" fill="black"/>
<path d="M32.0765 34.6354L32.7345 35.1446L30.6366 37.8554L29.9786 37.3461L32.0765 34.6354ZM29.47 35.4855L30.1335 34.6282L35.124 38.4905C35.2939 38.622 35.4425 38.695 35.5696 38.7094C35.6967 38.7238 35.8065 38.7001 35.8988 38.6382C35.9912 38.5763 36.0744 38.4975 36.1485 38.4017C36.2035 38.3307 36.2547 38.2518 36.3021 38.165C36.3489 38.0727 36.3831 38.0029 36.4049 37.9556L37.1082 38.4924C37.0772 38.5771 37.028 38.6823 36.9605 38.8078C36.8984 38.9327 36.8076 39.0723 36.6881 39.2268C36.5255 39.4368 36.3344 39.5976 36.1147 39.7092C35.895 39.8207 35.6472 39.8537 35.3713 39.8081C35.0947 39.757 34.7896 39.6024 34.456 39.3442L29.47 35.4855Z" fill="black"/>
<path d="M43.3086 32.4275C42.9708 32.7116 42.6166 32.9125 42.246 33.0303C41.8759 33.1425 41.5042 33.177 41.1309 33.1337C40.7606 33.0878 40.4024 32.9654 40.0564 32.7665C39.7104 32.5675 39.3941 32.2976 39.1074 31.9568L38.949 31.7685C38.6171 31.3739 38.3799 30.9736 38.2375 30.5677C38.0926 30.1587 38.0298 29.7624 38.049 29.3787C38.0683 28.995 38.1584 28.6409 38.3195 28.3166C38.4805 27.9923 38.6971 27.7157 38.9691 27.4869C39.3159 27.1952 39.6651 27.0035 40.0168 26.9119C40.3715 26.8177 40.72 26.8104 41.0625 26.8899C41.4025 26.9663 41.7332 27.1168 42.0549 27.3414C42.374 27.563 42.6769 27.8442 42.9635 28.185L43.2766 28.5572L39.6535 31.6047L39.0839 30.9276L41.8775 28.5779L41.8247 28.5151C41.6317 28.3099 41.4108 28.1384 41.1621 28.0005C40.9164 27.8601 40.656 27.7932 40.381 27.8C40.1059 27.8068 39.8264 27.9296 39.5424 28.1685C39.3541 28.3269 39.2146 28.5131 39.1241 28.727C39.031 28.938 38.9931 29.169 39.0102 29.42C39.0274 29.671 39.0989 29.935 39.2247 30.212C39.3505 30.489 39.5366 30.774 39.783 31.067L39.9414 31.2553C40.135 31.4855 40.3487 31.6758 40.5825 31.8263C40.8167 31.9712 41.0592 32.0684 41.31 32.1178C41.5638 32.1646 41.8154 32.1572 42.0647 32.0956C42.317 32.0314 42.5567 31.9037 42.7839 31.7126C43.0768 31.4662 43.2747 31.1977 43.3774 30.9072C43.4801 30.6166 43.5234 30.3071 43.5074 29.9786L44.3453 29.9552C44.3739 30.2017 44.3679 30.4645 44.3272 30.7438C44.2864 31.0231 44.1857 31.3069 44.025 31.5952C43.8672 31.881 43.6284 32.1584 43.3086 32.4275Z" fill="black"/>
<path d="M49.4265 22.1558L51.6227 26.6325L50.6495 27.1099L47.8572 21.4181L48.7778 20.9665L49.4265 22.1558ZM49.8893 23.6844L49.4765 23.8674C49.289 23.4764 49.1705 23.0885 49.121 22.7038C49.0698 22.3156 49.0857 21.9489 49.1687 21.6036C49.2516 21.2583 49.4007 20.9502 49.6159 20.6793C49.8329 20.4032 50.1132 20.1808 50.4569 20.0122C50.7374 19.8746 51.0088 19.7893 51.2711 19.7563C51.5317 19.7199 51.7813 19.7454 52.02 19.8328C52.2622 19.9184 52.4899 20.0722 52.7031 20.2939C52.9146 20.5121 53.1124 20.8089 53.2964 21.1841L55.1261 24.9138L54.1477 25.3938L52.3128 21.6536C52.1666 21.3555 52.0058 21.1385 51.8304 21.0027C51.6532 20.8633 51.4607 20.7946 51.2528 20.7965C51.0432 20.7949 50.8156 20.8544 50.5701 20.9748C50.3281 21.0935 50.1321 21.2527 49.9821 21.4525C49.8356 21.6506 49.7344 21.8743 49.6783 22.1237C49.6258 22.3713 49.616 22.6307 49.6489 22.9017C49.6835 23.1675 49.7637 23.4284 49.8893 23.6844Z" fill="black"/>
<path d="M65.1145 20.6164L63.4733 13.0222L64.5386 12.792L66.4397 21.5889L65.4661 21.7993L65.1145 20.6164ZM60.5503 19.6905L60.5243 19.5702C60.422 19.0968 60.3865 18.6548 60.4177 18.2445C60.4519 17.8294 60.5457 17.4595 60.6993 17.1345C60.8567 16.8088 61.0682 16.5393 61.3339 16.326C61.6025 16.1081 61.922 15.9591 62.2923 15.8791C62.6818 15.7949 63.0365 15.7902 63.3563 15.8649C63.6792 15.935 63.9699 16.078 64.2283 16.2939C64.4898 16.5052 64.7189 16.7794 64.9157 17.1165C65.1124 17.4537 65.2832 17.8464 65.428 18.2947L65.5419 18.8216C65.5981 19.285 65.6043 19.7113 65.5605 20.1004C65.5205 20.4887 65.4251 20.833 65.2742 21.1334C65.1271 21.4329 64.9214 21.6832 64.6572 21.8842C64.392 22.0814 64.0629 22.2224 63.6696 22.3074C63.3069 22.3858 62.9578 22.3793 62.6223 22.288C62.2907 22.1958 61.9855 22.0319 61.7068 21.7964C61.4319 21.5601 61.1941 21.2638 60.9932 20.9076C60.7953 20.5467 60.6477 20.141 60.5503 19.6905ZM61.5896 19.34L61.6156 19.4603C61.6824 19.7695 61.7757 20.0531 61.8953 20.311C62.0188 20.568 62.1697 20.7852 62.3479 20.9625C62.5261 21.1398 62.731 21.2654 62.9628 21.3392C63.1937 21.4092 63.4524 21.4132 63.7387 21.3513C64.09 21.2754 64.3622 21.1387 64.5552 20.9411C64.7522 20.7427 64.8929 20.5064 64.9776 20.2324C65.0622 19.9583 65.1118 19.6698 65.1263 19.367L64.828 17.9867C64.7368 17.7866 64.6262 17.5987 64.4963 17.423C64.3694 17.2426 64.2207 17.0909 64.0503 16.9679C63.8828 16.8402 63.6899 16.752 63.4716 16.7033C63.257 16.6537 63.0161 16.6578 62.7489 16.7156C62.4587 16.7783 62.2218 16.8934 62.0382 17.061C61.8576 17.2239 61.7232 17.4248 61.6349 17.6637C61.5459 17.8987 61.4986 18.1607 61.4931 18.4497C61.4906 18.734 61.5227 19.0307 61.5896 19.34Z" fill="black"/>
<path d="M86.4937 21.5561L86.3176 22.459L81.8835 21.5944L82.0596 20.6915L86.4937 21.5561ZM83.7405 13.2646L82.1078 21.6382L80.9979 21.4217L82.6306 13.0482L83.7405 13.2646ZM86.6617 17.5712L86.4857 18.4741L82.6382 17.724L82.8143 16.821L86.6617 17.5712ZM87.8928 14.0742L87.7156 14.9829L83.3391 14.1295L83.5162 13.2209L87.8928 14.0742Z" fill="black"/>
<path d="M94.3055 24.3146L98.0989 20.148L99.1075 20.6052L94.4137 25.4381L93.752 25.1381L94.3055 24.3146ZM95.2012 18.8341L94.6029 24.4817L94.323 25.397L93.6613 25.097L94.1873 18.3744L95.2012 18.8341Z" fill="black"/>
<path d="M103.609 31.1512C103.26 30.8809 102.989 30.5772 102.795 30.2398C102.607 29.9017 102.495 29.5457 102.459 29.1716C102.425 28.8 102.47 28.4241 102.591 28.0438C102.712 27.6636 102.909 27.2974 103.182 26.9453L103.333 26.7507C103.648 26.343 103.99 26.0267 104.356 25.8018C104.725 25.5738 105.1 25.4287 105.479 25.3666C105.858 25.3044 106.223 25.3178 106.574 25.4067C106.925 25.4957 107.241 25.649 107.522 25.8666C107.88 26.144 108.141 26.4449 108.305 26.7693C108.472 27.0961 108.553 27.4353 108.548 27.7868C108.545 28.1352 108.467 28.4903 108.316 28.8521C108.166 29.2108 107.955 29.5662 107.683 29.9184L107.385 30.3029L103.641 27.4047L104.183 26.7051L107.07 28.9397L107.12 28.8749C107.28 28.6429 107.401 28.3908 107.483 28.1186C107.568 27.8488 107.579 27.5802 107.514 27.3127C107.449 27.0453 107.27 26.798 106.977 26.5708C106.782 26.4202 106.571 26.3232 106.343 26.2799C106.117 26.2334 105.883 26.2451 105.641 26.3149C105.399 26.3846 105.156 26.5102 104.912 26.6916C104.668 26.8731 104.429 27.1152 104.194 27.4179L104.044 27.6125C103.86 27.8503 103.719 28.0994 103.621 28.3596C103.529 28.6192 103.485 28.8767 103.49 29.1323C103.497 29.3903 103.558 29.6346 103.671 29.8652C103.787 30.0983 103.962 30.3057 104.197 30.4874C104.499 30.7217 104.804 30.8584 105.109 30.8975C105.415 30.9365 105.727 30.9136 106.045 30.8286L106.244 31.6427C106.009 31.7227 105.751 31.7722 105.47 31.7914C105.188 31.8105 104.889 31.772 104.574 31.6757C104.261 31.5819 103.939 31.407 103.609 31.1512Z" fill="black"/>
<path d="M114.941 34.9631L111.029 38.0548L110.356 37.2043L115.331 33.2734L115.966 34.0779L114.941 34.9631ZM113.544 35.7381L113.278 35.3732C113.621 35.1075 113.975 34.9098 114.341 34.7802C114.709 34.6482 115.071 34.5863 115.426 34.5945C115.781 34.6027 116.114 34.6834 116.424 34.8365C116.74 34.9903 117.016 35.2174 117.254 35.5178C117.447 35.7629 117.588 36.0102 117.676 36.2597C117.766 36.5067 117.794 36.7561 117.759 37.0078C117.726 37.2626 117.624 37.5176 117.452 37.7728C117.284 38.0256 117.035 38.2816 116.707 38.5407L113.448 41.1165L112.772 40.2614L116.041 37.6784C116.301 37.4725 116.48 37.2695 116.575 37.0694C116.674 36.8668 116.701 36.6641 116.655 36.4613C116.612 36.2561 116.506 36.0462 116.337 35.8316C116.169 35.6202 115.972 35.4622 115.745 35.3578C115.521 35.2564 115.281 35.2046 115.025 35.2025C114.772 35.2034 114.517 35.2485 114.259 35.3379C114.006 35.4279 113.768 35.5613 113.544 35.7381Z" fill="black"/>
<path d="M123.81 46.4903L123.063 46.8566L121.554 43.779L122.301 43.4127L123.81 46.4903ZM124.195 43.7758L124.673 44.7491L119.007 47.5276C118.814 47.6222 118.683 47.7234 118.614 47.8312C118.545 47.939 118.518 48.0479 118.533 48.1581C118.548 48.2683 118.582 48.3777 118.635 48.4865C118.675 48.5671 118.723 48.6479 118.78 48.7287C118.842 48.8112 118.89 48.8728 118.923 48.9132L118.131 49.308C118.069 49.2429 117.996 49.1524 117.913 49.0364C117.828 48.9257 117.743 48.7827 117.657 48.6073C117.54 48.3688 117.48 48.1264 117.476 47.88C117.473 47.6337 117.553 47.3967 117.715 47.1691C117.883 46.9433 118.156 46.7375 118.535 46.5518L124.195 43.7758Z" fill="black"/>
<path d="M122.845 58.1424C122.996 58.1048 123.128 58.0359 123.24 57.9357C123.357 57.8383 123.443 57.6741 123.498 57.443C123.559 57.2148 123.578 56.888 123.557 56.4626C123.545 56.1035 123.553 55.7733 123.583 55.4721C123.614 55.1747 123.676 54.9119 123.768 54.6837C123.861 54.4594 123.99 54.2725 124.154 54.1231C124.318 53.9737 124.527 53.8675 124.781 53.8046C125.024 53.7444 125.267 53.7406 125.509 53.7931C125.752 53.8495 125.982 53.9556 126.198 54.1113C126.414 54.2709 126.605 54.4792 126.769 54.7363C126.934 54.9933 127.059 55.2944 127.144 55.6394C127.266 56.1323 127.283 56.5747 127.196 56.9668C127.108 57.3589 126.941 57.684 126.695 57.9422C126.453 58.1994 126.156 58.3717 125.803 58.4592L125.542 57.4071C125.713 57.3648 125.865 57.2727 125.999 57.1308C126.137 56.9918 126.236 56.8125 126.294 56.5928C126.353 56.3769 126.348 56.1305 126.28 55.8538C126.207 55.5618 126.103 55.3362 125.967 55.1767C125.835 55.0202 125.691 54.9171 125.534 54.8675C125.378 54.8218 125.224 54.8177 125.072 54.8553C124.958 54.8835 124.861 54.9279 124.779 54.9883C124.702 55.0517 124.639 55.1439 124.588 55.2651C124.542 55.3853 124.509 55.5463 124.491 55.7481C124.472 55.9498 124.467 56.2028 124.474 56.5069C124.485 57.0394 124.451 57.4884 124.373 57.8539C124.295 58.2195 124.16 58.5106 123.968 58.7272C123.776 58.9438 123.515 59.093 123.185 59.1748C122.916 59.2415 122.656 59.2458 122.404 59.1875C122.153 59.133 121.919 59.0198 121.704 58.848C121.493 58.6789 121.306 58.4597 121.142 58.1903C120.984 57.9238 120.86 57.6105 120.77 57.2503C120.636 56.7081 120.619 56.2254 120.719 55.8021C120.819 55.3788 120.999 55.0324 121.258 54.7628C121.517 54.4933 121.817 54.3162 122.159 54.2316L122.421 55.2894C122.137 55.376 121.928 55.5163 121.795 55.7103C121.666 55.9033 121.592 56.1187 121.575 56.3565C121.561 56.5933 121.581 56.8198 121.635 57.0359C121.706 57.3241 121.804 57.5554 121.928 57.73C122.052 57.9083 122.194 58.0322 122.352 58.1017C122.51 58.1711 122.674 58.1847 122.845 58.1424Z" fill="black"/>
<path d="M127.954 90.3109L121.201 85.5324L121.506 84.4191L128.875 89.8099L128.678 90.5276L127.954 90.3109ZM119.829 90.5392L128.076 89.8645L128.809 90.0473L128.613 90.765L119.522 91.6581L119.829 90.5392ZM122.914 91.2325L122.021 90.9879L123.287 86.3653L124.18 86.61L122.914 91.2325Z" fill="black"/>
<path d="M121.427 102.355L120.693 101.963L122.308 98.9397L123.042 99.3316L121.427 102.355ZM123.855 101.081L123.344 102.037L117.777 99.0649C117.588 98.9637 117.429 98.9166 117.301 98.9237C117.174 98.9307 117.069 98.9725 116.989 99.049C116.908 99.1255 116.839 99.2171 116.782 99.324C116.74 99.4032 116.703 99.4896 116.67 99.5831C116.64 99.6819 116.618 99.7564 116.604 99.8068L115.821 99.3952C115.837 99.3065 115.868 99.1946 115.914 99.0595C115.954 98.9261 116.02 98.7732 116.112 98.6009C116.237 98.3666 116.399 98.176 116.597 98.0293C116.795 97.8826 117.033 97.8086 117.313 97.8073C117.594 97.8113 117.921 97.9127 118.293 98.1114L123.855 101.081Z" fill="black"/>
<path d="M115.75 110.499L115.099 109.981L117.235 107.3L117.886 107.819L115.75 110.499ZM118.368 109.686L117.693 110.534L112.758 106.601C112.59 106.467 112.442 106.392 112.315 106.376C112.188 106.36 112.078 106.382 111.985 106.443C111.892 106.503 111.807 106.581 111.732 106.675C111.676 106.746 111.624 106.824 111.575 106.91C111.527 107.002 111.492 107.071 111.469 107.118L110.774 106.571C110.806 106.487 110.856 106.382 110.926 106.258C110.99 106.134 111.082 105.996 111.204 105.843C111.37 105.635 111.563 105.477 111.784 105.369C112.006 105.26 112.254 105.231 112.529 105.28C112.805 105.335 113.108 105.494 113.438 105.757L118.368 109.686Z" fill="black"/>
<path d="M104.488 112.547C104.83 112.268 105.187 112.072 105.559 111.96C105.93 111.853 106.303 111.823 106.675 111.872C107.045 111.923 107.401 112.051 107.744 112.254C108.088 112.458 108.4 112.733 108.682 113.077L108.838 113.268C109.164 113.667 109.395 114.071 109.532 114.479C109.671 114.89 109.728 115.287 109.703 115.67C109.679 116.054 109.584 116.407 109.418 116.729C109.252 117.051 109.032 117.324 108.757 117.549C108.406 117.836 108.054 118.022 107.701 118.109C107.345 118.198 106.996 118.2 106.655 118.116C106.316 118.035 105.987 117.88 105.669 117.651C105.353 117.424 105.054 117.139 104.772 116.794L104.465 116.418L108.131 113.422L108.691 114.107L105.864 116.417L105.916 116.48C106.106 116.688 106.324 116.863 106.571 117.004C106.815 117.148 107.074 117.219 107.349 117.216C107.624 117.213 107.906 117.094 108.193 116.859C108.384 116.704 108.526 116.519 108.619 116.307C108.715 116.097 108.756 115.867 108.743 115.615C108.729 115.364 108.662 115.099 108.54 114.82C108.418 114.542 108.236 114.254 107.994 113.958L107.838 113.767C107.648 113.534 107.437 113.341 107.205 113.187C106.973 113.039 106.732 112.938 106.482 112.885C106.229 112.835 105.977 112.839 105.727 112.897C105.474 112.957 105.232 113.082 105.002 113.269C104.706 113.512 104.504 113.777 104.397 114.066C104.291 114.355 104.243 114.664 104.254 114.993L103.416 115.004C103.391 114.758 103.401 114.495 103.445 114.216C103.49 113.938 103.595 113.655 103.76 113.369C103.921 113.086 104.164 112.812 104.488 112.547Z" fill="black"/>
<path d="M98.2244 122.731L96.0921 118.223L97.0719 117.76L99.7831 123.491L98.8561 123.929L98.2244 122.731ZM97.7834 121.196L98.1988 121.019C98.3806 121.412 98.4936 121.802 98.5376 122.187C98.5833 122.576 98.5622 122.943 98.4744 123.287C98.3865 123.631 98.2331 123.937 98.0141 124.205C97.7932 124.478 97.5097 124.696 97.1637 124.86C96.8812 124.993 96.6086 125.075 96.3458 125.104C96.0848 125.137 95.8355 125.108 95.5981 125.017C95.3572 124.928 95.1317 124.771 94.9217 124.546C94.7133 124.325 94.5198 124.025 94.341 123.648L92.5645 119.892L93.5497 119.426L95.3312 123.192C95.4732 123.492 95.6309 123.711 95.8044 123.85C95.9795 123.992 96.1711 124.063 96.379 124.064C96.5886 124.069 96.8169 124.012 97.0641 123.896C97.3078 123.78 97.506 123.624 97.6588 123.426C97.8081 123.23 97.9126 123.008 97.9721 122.759C98.0282 122.513 98.0417 122.253 98.0127 121.982C97.9818 121.716 97.9053 121.454 97.7834 121.196Z" fill="black"/>
<path d="M82.5162 124.047L84.0493 131.664L82.9809 131.879L81.2049 123.056L82.1815 122.86L82.5162 124.047ZM87.0667 125.038L87.091 125.159C87.1866 125.634 87.2159 126.076 87.1788 126.486C87.1388 126.9 87.0396 127.269 86.8814 127.592C86.7194 127.915 86.5041 128.182 86.2355 128.391C85.9638 128.605 85.6422 128.75 85.2707 128.824C84.8801 128.903 84.5254 128.903 84.2067 128.823C83.8848 128.749 83.5962 128.602 83.3408 128.382C83.0824 128.167 82.8572 127.89 82.6653 127.55C82.4733 127.21 82.3081 126.815 82.1697 126.364L82.0633 125.836C82.0137 125.372 82.0136 124.946 82.0629 124.557C82.1084 124.169 82.2087 123.826 82.3638 123.528C82.5152 123.231 82.7244 122.983 82.9915 122.786C83.2594 122.593 83.5905 122.457 83.985 122.377C84.3488 122.304 84.6977 122.315 85.0319 122.411C85.3622 122.508 85.665 122.676 85.9403 122.916C86.2118 123.156 86.4454 123.456 86.6412 123.815C86.8339 124.178 86.9758 124.586 87.0667 125.038ZM86.0226 125.374L85.9983 125.253C85.9359 124.943 85.8467 124.658 85.7307 124.399C85.6109 124.14 85.4631 123.92 85.2875 123.741C85.1118 123.561 84.9086 123.432 84.678 123.355C84.448 123.282 84.1895 123.274 83.9023 123.332C83.55 123.403 83.2759 123.536 83.08 123.731C82.8803 123.926 82.7362 124.161 82.6476 124.433C82.5591 124.706 82.5055 124.994 82.4867 125.297L82.7653 126.681C82.8537 126.882 82.9615 127.072 83.0889 127.249C83.2133 127.432 83.3598 127.585 83.5285 127.711C83.6941 127.841 83.8857 127.932 84.1034 127.984C84.3172 128.036 84.5581 128.035 84.8261 127.981C85.1172 127.923 85.3557 127.811 85.5416 127.646C85.7245 127.486 85.8618 127.287 85.9534 127.049C86.0458 126.816 86.0968 126.554 86.1064 126.265C86.113 125.981 86.085 125.684 86.0226 125.374Z" fill="black"/>
<path d="M61.1525 122.804L61.3413 121.904L65.7627 122.831L65.5738 123.731L61.1525 122.804ZM63.7875 131.134L65.539 122.784L66.6458 123.016L64.8943 131.366L63.7875 131.134ZM60.9278 126.786L61.1167 125.886L64.9531 126.69L64.7642 127.591L60.9278 126.786ZM59.6472 130.265L59.8372 129.359L64.2012 130.275L64.0112 131.181L59.6472 130.265Z" fill="black"/>
<path d="M53.3807 119.934L49.5284 124.047L48.5264 123.575L53.2885 118.809L53.9459 119.119L53.3807 119.934ZM52.4072 125.401L53.0857 119.763L53.3786 118.852L54.036 119.161L53.4145 125.875L52.4072 125.401Z" fill="black"/>
<path d="M44.1754 112.966C44.5205 113.242 44.7874 113.549 44.9759 113.889C45.1589 114.23 45.2659 114.588 45.2971 114.962C45.3252 115.334 45.2758 115.709 45.149 116.088C45.0222 116.466 44.82 116.83 44.5424 117.178L44.389 117.37C44.0676 117.774 43.7219 118.085 43.352 118.305C42.9796 118.527 42.6035 118.667 42.2235 118.724C41.8435 118.781 41.4787 118.762 41.129 118.668C40.7793 118.574 40.4654 118.416 40.1874 118.195C39.8331 117.912 39.5764 117.608 39.4172 117.281C39.2549 116.952 39.179 116.612 39.1894 116.26C39.1973 115.912 39.2797 115.558 39.4364 115.198C39.5907 114.842 39.8067 114.489 40.0843 114.141L40.3874 113.761L44.0895 116.712L43.538 117.404L40.6836 115.128L40.6324 115.193C40.4693 115.422 40.3447 115.673 40.2585 115.944C40.1693 116.212 40.1552 116.481 40.216 116.749C40.2769 117.017 40.4524 117.267 40.7426 117.498C40.935 117.652 41.1451 117.752 41.3727 117.798C41.5979 117.848 41.8318 117.84 42.0745 117.773C42.3172 117.707 42.5619 117.585 42.8087 117.407C43.0555 117.229 43.2981 116.99 43.5368 116.691L43.6902 116.499C43.8776 116.263 44.0221 116.016 44.1235 115.757C44.2195 115.499 44.2669 115.242 44.2659 114.987C44.2617 114.729 44.2049 114.484 44.0953 114.251C43.9826 114.017 43.8102 113.807 43.5781 113.622C43.2787 113.383 42.9765 113.242 42.6714 113.199C42.3663 113.155 42.0543 113.174 41.7354 113.254L41.5473 112.437C41.7832 112.361 42.0421 112.315 42.3239 112.3C42.6057 112.285 42.9038 112.327 43.2182 112.428C43.5295 112.526 43.8486 112.706 44.1754 112.966Z" fill="black"/>
<path d="M32.8988 108.994L36.8546 105.959L37.5145 106.819L32.485 110.678L31.8607 109.865L32.8988 108.994ZM34.3062 108.239L34.5669 108.608C34.2206 108.869 33.8637 109.061 33.4963 109.186C33.1258 109.313 32.7631 109.369 32.4083 109.356C32.0534 109.343 31.722 109.257 31.414 109.1C31.1005 108.942 30.8272 108.711 30.5942 108.407C30.4039 108.159 30.2668 107.91 30.1827 107.659C30.0956 107.411 30.0714 107.161 30.11 106.91C30.1462 106.656 30.252 106.402 30.4274 106.149C30.5996 105.899 30.8515 105.646 31.1831 105.392L34.4788 102.863L35.1423 103.727L31.8373 106.264C31.5739 106.466 31.3929 106.666 31.2943 106.865C31.1926 107.066 31.1632 107.269 31.2061 107.472C31.2459 107.678 31.349 107.889 31.5155 108.106C31.6796 108.32 31.8743 108.481 32.0998 108.588C32.3228 108.693 32.5621 108.748 32.8177 108.754C33.0708 108.757 33.327 108.715 33.5862 108.629C33.84 108.543 34.08 108.413 34.3062 108.239Z" fill="black"/>
<path d="M24.194 97.3419L24.9461 96.9862L26.4115 100.085L25.6593 100.441L24.194 97.3419ZM23.7702 100.051L23.3068 99.0706L29.0117 96.3729C29.2059 96.281 29.3383 96.1817 29.4088 96.0749C29.4792 95.9682 29.5078 95.8596 29.4945 95.7492C29.4812 95.6388 29.4487 95.5289 29.3969 95.4194C29.3585 95.3382 29.3114 95.2568 29.2555 95.1752C29.1944 95.0917 29.1477 95.0295 29.1154 94.9886L29.9128 94.6051C29.9742 94.6711 30.0456 94.7627 30.1269 94.8798C30.2101 94.9917 30.2934 95.1359 30.3769 95.3125C30.4905 95.5526 30.5472 95.7959 30.547 96.0422C30.5468 96.2886 30.4639 96.5244 30.2982 96.7497C30.1273 96.9731 29.8512 97.175 29.4698 97.3553L23.7702 100.051Z" fill="black"/>
<path d="M25.3249 85.7047C25.1727 85.7402 25.0399 85.8072 24.9265 85.9058C24.8084 86.0015 24.7201 86.1645 24.6614 86.3948C24.598 86.6221 24.5738 86.9486 24.5888 87.3743C24.5963 87.7335 24.5829 88.0635 24.5487 88.3643C24.5136 88.6612 24.4483 88.9231 24.3527 89.1499C24.2562 89.3729 24.1249 89.558 23.9586 89.705C23.7923 89.852 23.5817 89.9552 23.3268 90.0146C23.0833 90.0713 22.8408 90.0717 22.5991 90.0157C22.3565 89.9559 22.1285 89.8466 21.915 89.6877C21.7007 89.5251 21.5132 89.3141 21.3525 89.0547C21.1918 88.7954 21.0711 88.4926 20.9904 88.1464C20.8752 87.6518 20.8643 87.2092 20.9578 86.8184C21.0513 86.4276 21.2227 86.1049 21.4723 85.8502C21.718 85.5965 22.0177 85.4284 22.3715 85.3459L22.6175 86.4017C22.4463 86.4415 22.2927 86.5314 22.1569 86.6714C22.0163 86.8084 21.9154 86.9863 21.8541 87.2052C21.7919 87.4202 21.7931 87.6666 21.8578 87.9443C21.9261 88.2373 22.0271 88.4644 22.161 88.6257C22.2901 88.7842 22.4329 88.8893 22.5894 88.941C22.745 88.989 22.8988 88.9953 23.051 88.9598C23.1651 88.9333 23.2634 88.8903 23.3459 88.831C23.4236 88.7688 23.4886 88.6774 23.5407 88.557C23.5891 88.4374 23.6239 88.2769 23.6451 88.0754C23.6664 87.8739 23.6757 87.6211 23.673 87.3169C23.6692 86.7843 23.7091 86.3358 23.7927 85.9714C23.8763 85.607 24.0155 85.3179 24.2103 85.1041C24.4051 84.8902 24.6681 84.7447 24.999 84.6676C25.2691 84.6047 25.5297 84.6042 25.7808 84.666C26.0309 84.724 26.2626 84.8405 26.4758 85.0155C26.6844 85.1875 26.8684 85.4093 27.028 85.681C27.1828 85.9497 27.3024 86.2648 27.3866 86.6262C27.5133 87.1703 27.5235 87.6532 27.4172 88.075C27.311 88.4969 27.1263 88.8407 26.8634 89.1065C26.6004 89.3723 26.2978 89.5451 25.9554 89.6249L25.7081 88.5634C25.9937 88.4809 26.2043 88.3435 26.3401 88.1515C26.472 87.9603 26.5484 87.746 26.5693 87.5085C26.5864 87.2719 26.5697 87.0452 26.5192 86.8283C26.4518 86.5392 26.3575 86.3065 26.2362 86.1302C26.114 85.9501 25.9744 85.8242 25.8173 85.7525C25.6602 85.6808 25.4961 85.6649 25.3249 85.7047Z" fill="black"/>
<circle cx="127" cy="73" r="2" fill="black"/>
<circle cx="19" cy="73" r="2" fill="black"/>
</svg>
